<svg viewBox="0 0 28 28" xmlns="http://www.w3.org/2000/svg">
<g clip-path="url(#clip0_2124_13985)">
<path d="M4.10156 23.5273C4.71094 23.5273 5.15625 23.1055 5.15625 22.4844C5.15625 22.0742 5.12109 21.6875 5.12109 21.1367C5.12109 16.7891 6.63281 15.0195 10.9336 15.0195H19.0195L21.9023 14.8438L17.9414 18.4531L15.3398 21.1016C15.1641 21.2891 15.0586 21.5703 15.0586 21.8516C15.0586 22.4375 15.5039 22.8594 16.0898 22.8594C16.3594 22.8594 16.6172 22.7539 16.8516 22.5312L24.6328 14.7617C24.8789 14.5273 24.9961 14.2578 24.9961 13.9648C24.9961 13.6836 24.8789 13.4023 24.6328 13.1797L16.875 5.43359C16.6172 5.17578 16.3594 5.08203 16.0898 5.08203C15.5039 5.08203 15.0586 5.50391 15.0586 6.08984C15.0586 6.37109 15.1523 6.64062 15.3398 6.82812L17.9414 9.47656L21.8906 13.0859L19.0195 12.9219H10.8281C5.27344 12.9219 3 15.3594 3 21.0312C3 21.7109 3.02344 22.2969 3.10547 22.6484C3.19922 23.1289 3.48047 23.5273 4.10156 23.5273Z"/>
</g>
<defs>
<clipPath id="clip0_2124_13985">
<rect width="21.9961" height="18.5273" fill="white" transform="translate(3 5)"/>
</clipPath>
</defs>
</svg>
