<svg viewBox="0 0 28 28"
  xmlns="http://www.w3.org/2000/svg">
  <g clip-path="url(#clip0_2124_88437)">
    <path d="M7.63281 26.125H20.0781C22.5039 26.125 23.7109 24.8945 23.7109 22.457V11.8164C23.7109 10.3047 23.5352 9.64844 22.5977 8.6875L16.1406 2.11328C15.25 1.19922 14.5117 1 13.1992 1H7.63281C5.21875 1 4 2.24219 4 4.67969V22.457C4 24.9062 5.20703 26.125 7.63281 26.125ZM7.71484 24.2383C6.50781 24.2383 5.88672 23.5938 5.88672 22.4219V4.71484C5.88672 3.55469 6.50781 2.88672 7.72656 2.88672H12.9414V9.69531C12.9414 11.1719 13.6797 11.8984 15.1445 11.8984H21.8242V22.4219C21.8242 23.5938 21.2031 24.2383 19.9844 24.2383H7.71484ZM15.3555 10.1289C14.8867 10.1289 14.7109 9.94141 14.7109 9.47266V3.25L21.4609 10.1289H15.3555Z" />
    <path d="M14.7461 21.8828V17.6289L14.6758 15.7188L15.6719 16.75L16.7266 17.8281C16.8906 18.0039 17.125 18.0977 17.3594 18.0977C17.8281 18.0977 18.1797 17.7578 18.1797 17.2891C18.1797 17.0195 18.0742 16.8203 17.8867 16.6562L14.5117 13.5508C14.2656 13.3281 14.0781 13.2461 13.8555 13.2461C13.6328 13.2461 13.4453 13.3281 13.1992 13.5508L9.82422 16.6562C9.63672 16.8203 9.53125 17.0195 9.53125 17.2891C9.53125 17.7578 9.87109 18.0977 10.3516 18.0977C10.5742 18.0977 10.8203 18.0039 10.9844 17.8281L12.0391 16.75L13.0352 15.7188L12.9648 17.6289V21.8828C12.9648 22.3633 13.375 22.75 13.8555 22.75C14.3359 22.75 14.7461 22.3633 14.7461 21.8828Z" />
  </g>
  <defs>
    <clipPath id="clip0_2124_88437">
      <rect width="19.7109" height="25.1367" transform="translate(4 1)"/>
    </clipPath>
  </defs>
</svg>
