<svg viewBox="0 0 28 28" xmlns="http://www.w3.org/2000/svg">
<path d="M3 13.8828C3 14.1758 3.12891 14.4453 3.36328 14.668L11.1445 22.4375C11.3789 22.6602 11.625 22.7656 11.9062 22.7656C12.4805 22.7656 12.9375 22.3438 12.9375 21.7578C12.9375 21.4766 12.832 21.1953 12.6445 21.0195L10.0195 18.3477L5.37891 14.1172L5.13281 14.6914L8.90625 14.9258H23.7305C24.3398 14.9258 24.7617 14.4922 24.7617 13.8828C24.7617 13.2734 24.3398 12.8398 23.7305 12.8398H8.90625L5.13281 13.0742L5.37891 13.6602L10.0195 9.41797L12.6445 6.74609C12.832 6.55859 12.9375 6.28906 12.9375 6.00781C12.9375 5.42188 12.4805 5 11.9062 5C11.625 5 11.3789 5.09375 11.1211 5.35156L3.36328 13.0977C3.12891 13.3203 3 13.5898 3 13.8828Z" />
</svg>
