<svg viewBox="0 0 19 19" fill="none" xmlns="http://www.w3.org/2000/svg">
<path d="M0 9.57401C0 15.5165 4.01858 19 9.50568 19C10.9401 19 12.3745 18.7723 13.2852 18.4877C13.991 18.26 14.2187 17.8844 14.2187 17.5087C14.2187 17.133 13.9227 16.8484 13.547 16.8484C13.456 16.8484 13.3193 16.8598 13.1486 16.9053C11.9874 17.1899 11.0881 17.3948 9.84722 17.3948C5.02036 17.3948 1.76453 14.6171 1.76453 9.64229C1.76453 4.88377 4.76992 1.60516 9.41462 1.60516C13.4218 1.60516 16.9053 4.00719 16.9053 8.60636C16.9053 11.1678 16.0287 12.9665 14.6399 12.9665C13.7519 12.9665 13.251 12.4997 13.251 11.6801V5.6465C13.251 5.10006 12.9437 4.75855 12.4314 4.75855C11.9191 4.75855 11.6004 5.10006 11.6004 5.6465V6.45477H11.5093C11.0539 5.41882 9.96104 4.75855 8.68604 4.75855C6.37508 4.75855 4.73576 6.73938 4.73576 9.5626C4.73576 12.42 6.3637 14.435 8.72019 14.435C10.0635 14.435 11.1336 13.695 11.6459 12.4997H11.737C11.8963 13.695 12.9664 14.435 14.3667 14.435C16.9281 14.435 18.5219 11.9191 18.5219 8.52667C18.5219 3.33554 14.6968 0 9.4374 0C3.87058 0 0 3.75674 0 9.57401ZM9.01617 12.8185C7.5021 12.8185 6.56861 11.5776 6.56861 9.55123C6.56861 7.55902 7.5021 6.35231 9.02755 6.35231C10.5872 6.35231 11.5776 7.59318 11.5776 9.53985C11.5776 11.5321 10.5758 12.8185 9.01617 12.8185Z" />
</svg>
