<svg viewBox="0 0 20 20" xmlns="http://www.w3.org/2000/svg">
<path d="M0.817161 6.51338C1.35853 6.51338 1.64454 6.2071 1.64454 5.67621V3.26682C1.64454 2.20505 2.20633 1.66396 3.22778 1.66396H5.69969C6.24107 1.66396 6.53729 1.36789 6.53729 0.837008C6.53729 0.306124 6.24107 0.0202637 5.69969 0.0202637H3.20736C1.07252 0.0202637 0 1.07182 0 3.17494V5.67621C0 6.2071 0.296221 6.51338 0.817161 6.51338ZM19.1726 6.51338C19.714 6.51338 20 6.2071 20 5.67621V3.17494C20 1.07182 18.9275 0.0202637 16.7926 0.0202637H14.2901C13.759 0.0202637 13.4627 0.306124 13.4627 0.837008C13.4627 1.36789 13.759 1.66396 14.2901 1.66396H16.762C17.7732 1.66396 18.3555 2.20505 18.3555 3.26682V5.67621C18.3555 6.2071 18.6517 6.51338 19.1726 6.51338ZM3.20736 19.9998H5.69969C6.24107 19.9998 6.53729 19.7038 6.53729 19.1831C6.53729 18.6523 6.24107 18.3562 5.69969 18.3562H3.22778C2.20633 18.3562 1.64454 17.8151 1.64454 16.7533V14.3439C1.64454 13.8029 1.34832 13.5067 0.817161 13.5067C0.286006 13.5067 0 13.8029 0 14.3439V16.835C0 18.9483 1.07252 19.9998 3.20736 19.9998ZM14.2901 19.9998H16.7926C18.9275 19.9998 20 18.9381 20 16.835V14.3439C20 13.8029 19.7038 13.5067 19.1726 13.5067C18.6415 13.5067 18.3555 13.8029 18.3555 14.3439V16.7533C18.3555 17.8151 17.7732 18.3562 16.762 18.3562H14.2901C13.759 18.3562 13.4627 18.6523 13.4627 19.1831C13.4627 19.7038 13.759 19.9998 14.2901 19.9998Z" />
<path d="M5.44433 14.6196H14.5659C15.6384 14.6196 16.19 14.0888 16.19 13.027V7.63652C16.19 6.55434 15.6384 6.02346 14.5659 6.02346H13.238C12.8397 6.02346 12.717 5.95199 12.4821 5.68655L12.0633 5.22713C11.808 4.94128 11.5424 4.79834 11.0214 4.79834H8.95808C8.42697 4.79834 8.16139 4.94128 7.90602 5.22713L7.48723 5.68655C7.2523 5.94178 7.12973 6.02346 6.73136 6.02346H5.44433C4.3616 6.02346 3.82022 6.55434 3.82022 7.63652V13.027C3.82022 14.0888 4.3616 14.6196 5.44433 14.6196ZM10.0204 13.3435C8.31461 13.3435 6.94586 11.9857 6.94586 10.2706C6.94586 8.57578 8.31461 7.21795 10.0204 7.21795C11.7058 7.21795 13.0644 8.57578 13.0644 10.2706C13.0644 12.0163 11.7058 13.3435 10.0204 13.3435ZM10.0102 12.4553C11.2053 12.4553 12.1859 11.4956 12.1859 10.2706C12.1859 9.06579 11.2053 8.09595 10.0102 8.09595C8.80494 8.09595 7.82431 9.06579 7.82431 10.2706C7.82431 11.4956 8.80494 12.4553 10.0102 12.4553ZM14.0858 8.81062C13.7079 8.81062 13.4014 8.50432 13.4014 8.11637C13.4014 7.72841 13.7079 7.42213 14.0858 7.42213C14.4638 7.42213 14.7804 7.72841 14.7804 8.11637C14.7804 8.50432 14.4638 8.81062 14.0858 8.81062Z" />
</svg>
