<svg viewBox="0 0 28 28" fill="none" xmlns="http://www.w3.org/2000/svg">
<path d="M8.63672 24.9922H19.3594C21.082 24.9922 21.9961 24.0547 21.9961 22.2031V14.1289C21.9961 12.2773 21.082 11.3516 19.3594 11.3516H8.63672C6.91406 11.3516 6 12.2773 6 14.1289V22.2031C6 24.0547 6.91406 24.9922 8.63672 24.9922ZM8.05078 12.2539H9.91406V8.29297C9.91406 5.33984 11.8008 3.76953 13.9922 3.76953C16.1836 3.76953 18.0938 5.33984 18.0938 8.29297V12.2539H19.9453V8.55078C19.9453 4.14453 17.0625 2 13.9922 2C10.9336 2 8.05078 4.14453 8.05078 8.55078V12.2539Z" />
</svg>
