<svg viewBox="0 0 28 28"  xmlns="http://www.w3.org/2000/svg">
<path d="M6 12.2695C6 16.8633 9.03516 20.0859 13.5 20.4609V23.1914H9.15234C8.66016 23.1914 8.26172 23.5898 8.26172 24.082C8.26172 24.5742 8.66016 24.9609 9.15234 24.9609H19.6172C20.1094 24.9609 20.5078 24.5742 20.5078 24.082C20.5078 23.5898 20.1094 23.1914 19.6172 23.1914H15.2695V20.4609C19.7461 20.0859 22.7695 16.8633 22.7695 12.2695V9.89062C22.7695 9.39844 22.3828 9.01172 21.8906 9.01172C21.3984 9.01172 21 9.39844 21 9.89062V12.1992C21 16.1953 18.3984 18.8438 14.3906 18.8438C10.3711 18.8438 7.76953 16.1953 7.76953 12.1992V9.89062C7.76953 9.39844 7.38281 9.01172 6.87891 9.01172C6.38672 9.01172 6 9.39844 6 9.89062V12.2695ZM14.3906 16.3242C16.7227 16.3242 18.293 14.5781 18.293 12.082V4.24219C18.293 1.73438 16.7227 0 14.3906 0C12.0469 0 10.4766 1.73438 10.4766 4.24219V12.082C10.4766 14.5781 12.0469 16.3242 14.3906 16.3242Z" />
</svg>
