<svg width="26" height="26" viewBox="0 0 26 26" fill="none" xmlns="http://www.w3.org/2000/svg">
<g clip-path="url(#clip0_2304_97)">
<path d="M4.04297 10.1211H21.293C21.8555 10.1211 22.3359 9.64062 22.3359 9.06641C22.3359 8.49219 21.8555 8.02344 21.293 8.02344H4.04297C3.48047 8.02344 3 8.49219 3 9.06641C3 9.64062 3.48047 10.1211 4.04297 10.1211Z" />
</g>
<path d="M4.04297 17.0977H18.2695C18.832 17.0977 19.3125 16.6172 19.3125 16.043C19.3125 15.4688 18.832 15 18.2695 15H4.04297C3.48047 15 3 15.4688 3 16.043C3 16.6172 3.48047 17.0977 4.04297 17.0977Z" />
<defs>
<clipPath id="clip0_2304_97">
<rect width="19.3359" height="2.12109" fill="white" transform="translate(3 8)"/>
</clipPath>
</defs>
</svg>
