<svg viewBox="0 0 69 84" fill="none" xmlns="http://www.w3.org/2000/svg">
<path d="M12.4512 83.3008H56.25C64.5996 83.3008 68.7012 79.1993 68.7012 70.9961V33.4473C68.7012 25.2442 64.5996 21.1426 56.25 21.1426H45.752V28.2227H56.1524C59.6192 28.2227 61.6699 30.127 61.6699 33.7891V70.6543C61.6699 74.3653 59.6192 76.2207 56.1524 76.2207H12.5489C9.03318 76.2207 7.03128 74.3653 7.03128 70.6543V33.7891C7.03128 30.127 9.03318 28.2227 12.5489 28.2227H22.9492V21.1426H12.4512C4.15038 21.1426 0 25.2442 0 33.4473V70.9961C0 79.1993 4.15038 83.3008 12.4512 83.3008Z" />
<path d="M34.3262 57.8125C35.2539 57.8125 35.9864 57.5195 36.8653 56.6406L49.4629 44.58C50.1465 43.9453 50.5371 43.2129 50.5371 42.2851C50.5371 40.4785 49.1699 39.209 47.3145 39.209C46.4844 39.209 45.6055 39.5508 44.9707 40.2832L39.5996 46.0937L37.5489 48.291L37.8418 42.4804V3.4179C37.8418 1.5625 36.2305 0 34.3262 0C32.4707 0 30.8594 1.5625 30.8594 3.4179V42.4804L31.1524 48.291L29.1016 46.0937L23.7305 40.2832C23.0957 39.5508 22.168 39.209 21.3379 39.209C19.4824 39.209 18.1641 40.4785 18.1641 42.2851C18.1641 43.2129 18.5547 43.9453 19.1895 44.58L31.7871 56.6406C32.7149 57.5195 33.4473 57.8125 34.3262 57.8125Z" />
</svg>
