<svg viewBox="0 0 19 19" fill="none" xmlns="http://www.w3.org/2000/svg">
<path d="M3.65316 17.9311C4.25017 18.3865 4.97875 18.265 5.72757 17.7085L9.50201 14.9358L13.2663 17.7085C14.0253 18.265 14.7538 18.3865 15.3509 17.9311C15.9378 17.4859 16.0592 16.7472 15.7658 15.8972L14.2681 11.4751L18.0729 8.75305C18.8217 8.21673 19.1658 7.559 18.9229 6.85065C18.6801 6.1423 18.0223 5.80838 17.1116 5.81849L12.4568 5.85896L11.0401 1.39642C10.7568 0.516068 10.2407 0 9.50201 0C8.76332 0 8.24723 0.516068 7.96389 1.39642L6.54722 5.85896L1.88229 5.81849C0.981689 5.80838 0.323951 6.1423 0.0810903 6.84054C-0.171888 7.559 0.182283 8.21673 0.931102 8.75305L4.7359 11.4751L3.23826 15.8972C2.94481 16.7472 3.06623 17.4859 3.65316 17.9311Z" />
</svg>
