<svg viewBox="0 0 28 28"  xmlns="http://www.w3.org/2000/svg">
<path d="M22.9223 13.939C22.9223 8.98198 21.3754 4.36479 18.6215 0.544475C17.7778 -0.639119 16.0551 0.392131 16.9692 1.6226C19.5356 5.14995 20.9067 9.40385 20.9067 13.939C20.9067 18.4741 19.5239 22.7163 16.9692 26.2436C16.0786 27.4624 17.7426 28.5522 18.6215 27.3335C21.3754 23.5015 22.9223 18.8843 22.9223 13.939Z" />
<path d="M16.5352 13.9391C16.5352 10.2594 15.375 6.80236 13.2891 4.00158C12.3516 2.74767 10.7227 3.9547 11.6016 5.10314C13.5118 7.61095 14.5313 10.6695 14.5313 13.9391C14.5313 17.2086 13.5118 20.2672 11.6016 22.775C10.7227 23.9234 12.3516 25.1305 13.2891 23.8648C15.375 21.0641 16.5352 17.6187 16.5352 13.9391Z" />
<path d="M10.1723 13.9391C10.1723 11.525 9.34029 9.27496 7.86373 7.51714C6.89107 6.36871 5.4731 7.66949 6.19966 8.60699C7.61763 10.3883 8.15669 11.8766 8.15669 13.9391C8.15669 16.0016 7.61763 17.4898 6.19966 19.2711C5.48482 20.1969 6.90279 21.4859 7.86373 20.3492C9.34029 18.6031 10.1723 16.3531 10.1723 13.9391Z" />
</svg>
